<?xml version="1.0" encoding="UTF-8"?>
<svg width="752pt" height="752pt" version="1.1" viewBox="0 0 752 752" xmlns="http://www.w3.org/2000/svg">
 <g>
  <path d="m554.92 607.21h-357.83c-28.828 0-52.293-23.441-52.293-52.293l0.003906-357.83c0-28.828 23.441-52.293 52.293-52.293h357.83c28.828 0 52.293 23.441 52.293 52.293v357.83c-0.003907 28.852-23.445 52.293-52.293 52.293zm-357.83-436.76c-14.699 0-26.641 11.938-26.641 26.641v357.83c0 14.699 11.938 26.641 26.641 26.641h357.83c14.699 0 26.641-11.938 26.641-26.641v-357.83c0-14.699-11.938-26.641-26.641-26.641z"/>
  <path d="m519.16 563.56h-286.32c-24.488 0-44.398-19.91-44.398-44.398v-286.3c0-24.488 19.91-44.398 44.398-44.398h286.3c24.488 0 44.398 19.91 44.398 44.398v286.3c0.015625 24.465-19.914 44.395-44.383 44.395zm-286.32-349.46c-10.34 0-18.746 8.4258-18.746 18.766v286.3c0 10.34 8.4062 18.746 18.746 18.746h286.3c10.34 0 18.746-8.4062 18.746-18.746l-0.003906-286.3c0-10.34-8.4062-18.766-18.746-18.766z"/>
 </g>
</svg>
